<svg width="218" height="188" viewBox="0 0 218 188" fill="none" xmlns="http://www.w3.org/2000/svg">
<mask id="mask0_386_50" style="mask-type:luminance" maskUnits="userSpaceOnUse" x="0" y="0" width="218" height="188">
<path d="M218 0H0V188H218V0Z" fill="white"/>
</mask>
<g mask="url(#mask0_386_50)">
<path d="M169.272 46.4024L132.149 28.215V131.13C130.152 133.33 127.29 134.293 124.69 135.563C104.957 145.175 97.0739 150.189 75.448 141.606C59.8207 135.405 35.8527 125.236 21.617 117.093C19.1968 115.707 15.5234 114.354 15.5493 111.333C17.4076 81.1583 13.2329 48.5606 15.5493 18.6771C16.4224 7.40444 22.5419 1.9009 34.1585 0.954591L149.003 0.913086C156.281 1.46095 163.196 3.96784 166.437 10.675C167.257 12.3684 169.263 18.8515 169.263 20.3705V46.4106L169.272 46.4024ZM41.2374 25.0855C34.3141 27.0279 34.8241 36.1922 41.9635 37.263C62.9324 35.636 87.9376 39.6038 108.413 37.3294C117.005 36.3748 116.78 26.0982 109.209 24.961L41.2374 25.0855ZM41.2374 59.8084C33.4239 63.1038 34.9364 71.0893 43.6403 72.0274C63.4855 74.1607 87.272 70.417 107.549 72.0439C116.47 71.5542 117.645 60.6301 108.413 59.6091L41.2374 59.8001V59.8084ZM41.2374 94.523C34.3141 96.4654 34.8241 105.63 41.9635 106.7C62.9324 105.073 87.9376 109.041 108.413 106.767C117.005 105.812 116.78 95.5356 109.209 94.3982L41.2374 94.523Z" fill="url(#paint0_linear_386_50)"/>
<path d="M169.272 46.4024L132.149 28.215V131.13C130.152 133.33 127.29 134.293 124.69 135.563C104.957 145.175 97.0739 150.189 75.448 141.606C59.8207 135.405 35.8527 125.236 21.617 117.093C19.1968 115.707 15.5234 114.354 15.5493 111.333C17.4076 81.1583 13.2329 48.5606 15.5493 18.6771C16.4224 7.40444 22.5419 1.9009 34.1585 0.954591L149.003 0.913086C156.281 1.46095 163.196 3.96784 166.437 10.675C167.257 12.3684 169.263 18.8515 169.263 20.3705V46.4106L169.272 46.4024ZM41.2374 25.0855C34.3141 27.0279 34.8241 36.1922 41.9635 37.263C62.9324 35.636 87.9376 39.6038 108.413 37.3294C117.005 36.3748 116.78 26.0982 109.209 24.961L41.2374 25.0855ZM41.2374 59.8084C33.4239 63.1038 34.9364 71.0893 43.6403 72.0274C63.4855 74.1607 87.272 70.417 107.549 72.0439C116.47 71.5542 117.645 60.6301 108.413 59.6091L41.2374 59.8001V59.8084ZM41.2374 94.523C34.3141 96.4654 34.8241 105.63 41.9635 106.7C62.9324 105.073 87.9376 109.041 108.413 106.767C117.005 105.812 116.78 95.5356 109.209 94.3982L41.2374 94.523Z" fill="url(#paint1_linear_386_50)"/>
<path d="M169.263 132.375C166.472 157.021 156.471 184.713 126.565 186.954C108.846 188.282 76.7879 188.398 59.1553 186.954C56.1042 186.705 52.2925 185.841 49.5353 184.589C42.5946 181.434 18.5315 153.394 12.1527 145.98C10.9599 144.594 -0.821006 130.54 0.0433309 129.894C24.9794 136.36 48.6104 146.753 72.9848 154.697C84.7397 158.532 92.3982 161.744 104.957 158C121.63 153.028 140.558 142.585 157.206 136.111C159.081 135.381 168.33 131.479 169.263 132.367V132.375Z" fill="url(#paint2_linear_386_50)"/>
<path d="M218.479 86.9193L145.969 126.581L146.825 48.0542L218.479 86.9193Z" fill="#48AD6E"/>
</g>
<defs>
<linearGradient id="paint0_linear_386_50" x1="92.0503" y1="0.913086" x2="92.0503" y2="146.009" gradientUnits="userSpaceOnUse">
<stop stop-color="#028DEE"/>
<stop offset="0.99856" stop-color="#5EC5F8"/>
</linearGradient>
<linearGradient id="paint1_linear_386_50" x1="92.0503" y1="0.913086" x2="92.0503" y2="146.009" gradientUnits="userSpaceOnUse">
<stop stop-color="#028DEE"/>
<stop offset="0.99856" stop-color="#5EC5F8"/>
</linearGradient>
<linearGradient id="paint2_linear_386_50" x1="84.6306" y1="129.894" x2="84.6306" y2="187.994" gradientUnits="userSpaceOnUse">
<stop stop-color="#028DEE"/>
<stop offset="1" stop-color="#5EC5F8"/>
</linearGradient>
</defs>
</svg>
