<svg width="939" height="225" viewBox="0 0 939 225" fill="none" xmlns="http://www.w3.org/2000/svg">
<mask id="mask0_398_5" style="mask-type:luminance" maskUnits="userSpaceOnUse" x="0" y="0" width="218" height="188">
<path d="M218 0H0V188H218V0Z" fill="white"/>
</mask>
<g mask="url(#mask0_398_5)">
<path d="M169.272 46.4024L132.149 28.215V131.13C130.152 133.33 127.29 134.293 124.69 135.563C104.957 145.175 97.0739 150.189 75.448 141.606C59.8207 135.405 35.8527 125.236 21.617 117.093C19.1968 115.707 15.5234 114.354 15.5493 111.333C17.4076 81.1583 13.2329 48.5606 15.5493 18.6771C16.4224 7.40444 22.5419 1.9009 34.1585 0.954591L149.003 0.913086C156.281 1.46095 163.196 3.96784 166.437 10.675C167.257 12.3684 169.263 18.8515 169.263 20.3705V46.4106L169.272 46.4024ZM41.2374 25.0855C34.3141 27.0279 34.8241 36.1922 41.9635 37.263C62.9324 35.636 87.9376 39.6038 108.413 37.3294C117.005 36.3748 116.78 26.0982 109.209 24.961L41.2374 25.0855ZM41.2374 59.8084C33.4239 63.1038 34.9364 71.0893 43.6403 72.0274C63.4855 74.1607 87.272 70.417 107.549 72.0439C116.47 71.5542 117.645 60.6301 108.413 59.6091L41.2374 59.8001V59.8084ZM41.2374 94.523C34.3141 96.4654 34.8241 105.63 41.9635 106.7C62.9324 105.073 87.9376 109.041 108.413 106.767C117.005 105.812 116.78 95.5356 109.209 94.3982L41.2374 94.523Z" fill="url(#paint0_linear_398_5)"/>
<path d="M169.272 46.4024L132.149 28.215V131.13C130.152 133.33 127.29 134.293 124.69 135.563C104.957 145.175 97.0739 150.189 75.448 141.606C59.8207 135.405 35.8527 125.236 21.617 117.093C19.1968 115.707 15.5234 114.354 15.5493 111.333C17.4076 81.1583 13.2329 48.5606 15.5493 18.6771C16.4224 7.40444 22.5419 1.9009 34.1585 0.954591L149.003 0.913086C156.281 1.46095 163.196 3.96784 166.437 10.675C167.257 12.3684 169.263 18.8515 169.263 20.3705V46.4106L169.272 46.4024ZM41.2374 25.0855C34.3141 27.0279 34.8241 36.1922 41.9635 37.263C62.9324 35.636 87.9376 39.6038 108.413 37.3294C117.005 36.3748 116.78 26.0982 109.209 24.961L41.2374 25.0855ZM41.2374 59.8084C33.4239 63.1038 34.9364 71.0893 43.6403 72.0274C63.4855 74.1607 87.272 70.417 107.549 72.0439C116.47 71.5542 117.645 60.6301 108.413 59.6091L41.2374 59.8001V59.8084ZM41.2374 94.523C34.3141 96.4654 34.8241 105.63 41.9635 106.7C62.9324 105.073 87.9376 109.041 108.413 106.767C117.005 105.812 116.78 95.5356 109.209 94.3982L41.2374 94.523Z" fill="url(#paint1_linear_398_5)"/>
<path d="M169.263 132.375C166.472 157.021 156.471 184.713 126.565 186.954C108.846 188.282 76.7879 188.398 59.1553 186.954C56.1042 186.705 52.2925 185.841 49.5353 184.589C42.5946 181.434 18.5315 153.394 12.1527 145.98C10.9599 144.594 -0.821006 130.54 0.0433309 129.894C24.9794 136.36 48.6104 146.753 72.9848 154.697C84.7397 158.532 92.3982 161.744 104.957 158C121.63 153.028 140.558 142.585 157.206 136.111C159.081 135.381 168.33 131.479 169.263 132.367V132.375Z" fill="url(#paint2_linear_398_5)"/>
<path d="M218.479 86.9193L145.969 126.581L146.825 48.0542L218.479 86.9193Z" fill="#48AD6E"/>
</g>
<path d="M249.005 140H228.903L259.533 51.2727H283.707L314.294 140H294.192L271.967 71.5483H271.273L249.005 140ZM247.749 105.124H295.232V119.768H247.749V105.124ZM343.733 51.2727V140H324.973V51.2727H343.733ZM446.237 79.9531C445.63 77.8447 444.778 75.9818 443.681 74.3643C442.583 72.718 441.24 71.3317 439.652 70.2053C438.092 69.05 436.301 68.169 434.279 67.5625C432.287 66.956 430.077 66.6527 427.651 66.6527C423.116 66.6527 419.131 67.7791 415.694 70.032C412.285 72.2848 409.628 75.563 407.722 79.8665C405.816 84.1411 404.863 89.3688 404.863 95.5497C404.863 101.731 405.801 106.987 407.679 111.32C409.556 115.652 412.213 118.959 415.65 121.241C419.087 123.494 423.145 124.62 427.824 124.62C432.07 124.62 435.695 123.869 438.699 122.367C441.731 120.836 444.042 118.685 445.63 115.912C447.248 113.139 448.056 109.861 448.056 106.077L451.869 106.641H428.994V92.517H466.123V103.695C466.123 111.493 464.476 118.194 461.184 123.797C457.891 129.371 453.356 133.675 447.58 136.707C441.803 139.711 435.189 141.213 427.738 141.213C419.419 141.213 412.112 139.379 405.816 135.711C399.519 132.014 394.609 126.772 391.086 119.984C387.591 113.168 385.843 105.081 385.843 95.723C385.843 88.5312 386.883 82.1193 388.963 76.4872C391.071 70.8262 394.017 66.0317 397.801 62.1037C401.584 58.1757 405.989 55.1863 411.015 53.1356C416.04 51.085 421.484 50.0597 427.348 50.0597C432.373 50.0597 437.052 50.7962 441.385 52.2692C445.717 53.7133 449.558 55.764 452.909 58.4212C456.288 61.0784 459.046 64.241 461.184 67.9091C463.321 71.5483 464.693 75.563 465.299 79.9531H446.237ZM498.843 141.256C494.597 141.256 490.814 140.52 487.492 139.047C484.171 137.545 481.542 135.335 479.607 132.418C477.701 129.472 476.748 125.804 476.748 121.414C476.748 117.717 477.426 114.612 478.784 112.099C480.141 109.587 481.99 107.565 484.329 106.034C486.669 104.503 489.326 103.348 492.301 102.568C495.305 101.788 498.453 101.24 501.746 100.922C505.616 100.518 508.735 100.142 511.104 99.7955C513.472 99.42 515.19 98.8712 516.259 98.1491C517.328 97.4271 517.862 96.3584 517.862 94.9432V94.6832C517.862 91.9394 516.996 89.8165 515.263 88.3146C513.559 86.8127 511.132 86.0618 507.984 86.0618C504.663 86.0618 502.02 86.7983 500.056 88.2713C498.092 89.7154 496.792 91.535 496.157 93.7301L479.087 92.3438C479.954 88.3002 481.658 84.8054 484.199 81.8594C486.741 78.8845 490.019 76.6027 494.034 75.0142C498.077 73.3968 502.756 72.5881 508.071 72.5881C511.768 72.5881 515.306 73.0213 518.685 73.8878C522.093 74.7543 525.112 76.0973 527.74 77.9169C530.397 79.7365 532.491 82.076 534.022 84.9354C535.553 87.7659 536.318 91.1596 536.318 95.1165V140H518.815V130.772H518.295C517.227 132.852 515.797 134.686 514.006 136.274C512.215 137.834 510.064 139.061 507.551 139.957C505.038 140.823 502.135 141.256 498.843 141.256ZM504.128 128.519C506.843 128.519 509.241 127.985 511.32 126.916C513.4 125.819 515.032 124.346 516.216 122.497C517.4 120.649 517.992 118.555 517.992 116.215V109.153C517.414 109.529 516.62 109.875 515.609 110.193C514.627 110.482 513.515 110.756 512.273 111.016C511.031 111.247 509.789 111.464 508.547 111.666C507.305 111.839 506.179 111.998 505.168 112.143C503.002 112.46 501.11 112.966 499.493 113.659C497.875 114.352 496.619 115.291 495.724 116.475C494.828 117.63 494.381 119.075 494.381 120.808C494.381 123.32 495.29 125.241 497.11 126.57C498.958 127.869 501.298 128.519 504.128 128.519ZM586.032 73.4545V87.3182H545.958V73.4545H586.032ZM555.056 57.5114H573.512V119.551C573.512 121.255 573.771 122.584 574.291 123.537C574.811 124.461 575.533 125.111 576.458 125.487C577.411 125.862 578.508 126.05 579.75 126.05C580.617 126.05 581.483 125.978 582.35 125.833C583.216 125.66 583.88 125.53 584.343 125.443L587.245 139.177C586.321 139.466 585.021 139.798 583.346 140.173C581.671 140.578 579.635 140.823 577.237 140.91C572.789 141.083 568.89 140.491 565.54 139.134C562.218 137.776 559.633 135.668 557.785 132.808C555.936 129.949 555.027 126.339 555.056 121.977V57.5114ZM627.666 141.3C620.821 141.3 614.929 139.913 609.99 137.141C605.08 134.339 601.297 130.382 598.639 125.27C595.982 120.129 594.654 114.049 594.654 107.031C594.654 100.185 595.982 94.1778 598.639 89.0078C601.297 83.8378 605.037 79.8087 609.86 76.9204C614.713 74.0322 620.402 72.5881 626.93 72.5881C631.32 72.5881 635.407 73.2957 639.191 74.7109C643.003 76.0973 646.325 78.1913 649.155 80.9929C652.014 83.7945 654.238 87.3182 655.827 91.5639C657.415 95.7808 658.21 100.72 658.21 106.381V111.45H602.019V100.012H640.837C640.837 97.3549 640.259 95.0009 639.104 92.9503C637.949 90.8996 636.346 89.2966 634.295 88.1413C632.273 86.9571 629.919 86.3651 627.233 86.3651C624.432 86.3651 621.948 87.0149 619.781 88.3146C617.644 89.5855 615.969 91.304 614.756 93.4702C613.543 95.6075 612.922 97.9903 612.893 100.619V111.493C612.893 114.786 613.499 117.63 614.713 120.028C615.954 122.425 617.702 124.273 619.955 125.573C622.208 126.873 624.879 127.523 627.97 127.523C630.02 127.523 631.898 127.234 633.602 126.656C635.306 126.079 636.764 125.212 637.977 124.057C639.191 122.902 640.115 121.486 640.75 119.811L657.82 120.938C656.953 125.039 655.177 128.62 652.491 131.682C649.834 134.714 646.397 137.083 642.18 138.787C637.992 140.462 633.154 141.3 627.666 141.3ZM682.904 140L664.795 73.4545H683.468L693.779 118.165H694.385L705.129 73.4545H723.455L734.373 117.905H734.936L745.074 73.4545H763.703L745.637 140H726.098L714.661 98.1491H713.838L702.4 140H682.904ZM792.525 141.256C788.279 141.256 784.495 140.52 781.174 139.047C777.852 137.545 775.224 135.335 773.289 132.418C771.382 129.472 770.429 125.804 770.429 121.414C770.429 117.717 771.108 114.612 772.466 112.099C773.823 109.587 775.672 107.565 778.011 106.034C780.35 104.503 783.008 103.348 785.983 102.568C788.986 101.788 792.135 101.24 795.427 100.922C799.297 100.518 802.417 100.142 804.785 99.7955C807.154 99.42 808.872 98.8712 809.941 98.1491C811.009 97.4271 811.544 96.3584 811.544 94.9432V94.6832C811.544 91.9394 810.677 89.8165 808.944 88.3146C807.24 86.8127 804.814 86.0618 801.666 86.0618C798.344 86.0618 795.702 86.7983 793.738 88.2713C791.774 89.7154 790.474 91.535 789.838 93.7301L772.769 92.3438C773.635 88.3002 775.339 84.8054 777.881 81.8594C780.423 78.8845 783.701 76.6027 787.716 75.0142C791.759 73.3968 796.438 72.5881 801.752 72.5881C805.449 72.5881 808.988 73.0213 812.367 73.8878C815.775 74.7543 818.793 76.0973 821.422 77.9169C824.079 79.7365 826.173 82.076 827.703 84.9354C829.234 87.7659 830 91.1596 830 95.1165V140H812.497V130.772H811.977C810.908 132.852 809.479 134.686 807.688 136.274C805.897 137.834 803.745 139.061 801.233 139.957C798.72 140.823 795.817 141.256 792.525 141.256ZM797.81 128.519C800.525 128.519 802.922 127.985 805.002 126.916C807.081 125.819 808.713 124.346 809.897 122.497C811.082 120.649 811.674 118.555 811.674 116.215V109.153C811.096 109.529 810.302 109.875 809.291 110.193C808.309 110.482 807.197 110.756 805.955 111.016C804.713 111.247 803.471 111.464 802.229 111.666C800.987 111.839 799.861 111.998 798.85 112.143C796.684 112.46 794.792 112.966 793.174 113.659C791.557 114.352 790.301 115.291 789.405 116.475C788.51 117.63 788.062 119.075 788.062 120.808C788.062 123.32 788.972 125.241 790.792 126.57C792.64 127.869 794.98 128.519 797.81 128.519ZM853.33 164.955C850.99 164.955 848.795 164.767 846.744 164.391C844.723 164.045 843.047 163.597 841.719 163.048L845.878 149.271C848.044 149.936 849.994 150.297 851.727 150.354C853.488 150.412 855.005 150.008 856.276 149.141C857.575 148.275 858.629 146.802 859.438 144.722L860.521 141.906L836.65 73.4545H856.059L869.836 122.324H870.529L884.436 73.4545H903.975L878.111 147.192C876.869 150.773 875.179 153.893 873.042 156.55C870.933 159.236 868.262 161.301 865.027 162.745C861.792 164.218 857.893 164.955 853.33 164.955Z" fill="#EFF6FF"/>
<defs>
<linearGradient id="paint0_linear_398_5" x1="92.0503" y1="0.913086" x2="92.0503" y2="146.009" gradientUnits="userSpaceOnUse">
<stop stop-color="#028DEE"/>
<stop offset="0.99856" stop-color="#5EC5F8"/>
</linearGradient>
<linearGradient id="paint1_linear_398_5" x1="92.0503" y1="0.913086" x2="92.0503" y2="146.009" gradientUnits="userSpaceOnUse">
<stop stop-color="#028DEE"/>
<stop offset="0.99856" stop-color="#5EC5F8"/>
</linearGradient>
<linearGradient id="paint2_linear_398_5" x1="84.6306" y1="129.894" x2="84.6306" y2="187.994" gradientUnits="userSpaceOnUse">
<stop stop-color="#028DEE"/>
<stop offset="1" stop-color="#5EC5F8"/>
</linearGradient>
</defs>
</svg>
