<svg width="176" height="96" viewBox="0 0 176 96" fill="none" xmlns="http://www.w3.org/2000/svg">
<g clip-path="url(#clip0_247_612)">
<rect x="-24" width="24" height="24" stroke="#D0F57F" stroke-width="0.48"/>
<path d="M24 0H24.24V-0.24H24V0ZM24 24V24.24H24.24V24H24ZM0 0.24H24V-0.24H0V0.24ZM23.76 0V24H24.24V0H23.76ZM24 23.76H0V24.24H24V23.76Z" fill="url(#paint0_linear_247_612)" fill-opacity="0.01"/>
<rect x="24" width="24" height="24" stroke="#222222" stroke-opacity="0.03" stroke-width="0.48"/>
<rect x="48" width="24" height="24" stroke="#222222" stroke-opacity="0.04" stroke-width="0.48"/>
<rect x="72" width="24" height="24" stroke="#222222" stroke-opacity="0.05" stroke-width="0.48"/>
<rect x="96" width="24" height="24" stroke="#222222" stroke-opacity="0.06" stroke-width="0.48"/>
<rect x="120" width="24" height="24" stroke="#222222" stroke-opacity="0.06" stroke-width="0.48"/>
<rect x="144" width="24" height="24" stroke="#222222" stroke-opacity="0.06" stroke-width="0.48"/>
<rect x="168" width="24" height="24" stroke="#222222" stroke-opacity="0.06" stroke-width="0.48"/>
<rect x="-24" y="24.0001" width="24" height="24" stroke="#D0F57F" stroke-width="0.48"/>
<path d="M24 24.0001H24.24V23.7601H24V24.0001ZM24 48.0001V48.2401H24.24V48.0001H24ZM0 24.2401H24V23.7601H0V24.2401ZM23.76 24.0001V48.0001H24.24V24.0001H23.76ZM24 47.7601H0V48.2401H24V47.7601Z" fill="url(#paint1_linear_247_612)" fill-opacity="0.01"/>
<rect x="24" y="24.0001" width="24" height="24" stroke="#222222" stroke-opacity="0.03" stroke-width="0.48"/>
<rect x="48" y="24.0001" width="24" height="24" stroke="#222222" stroke-opacity="0.04" stroke-width="0.48"/>
<rect x="72" y="24.0001" width="24" height="24" stroke="#222222" stroke-opacity="0.05" stroke-width="0.48"/>
<rect x="96" y="24.0001" width="24" height="24" stroke="#222222" stroke-opacity="0.06" stroke-width="0.48"/>
<rect x="120" y="24.0001" width="24" height="24" fill="#222222" fill-opacity="0.05" stroke="#222222" stroke-opacity="0.06" stroke-width="0.48"/>
<rect x="144" y="24.0001" width="24" height="24" stroke="#222222" stroke-opacity="0.06" stroke-width="0.48"/>
<rect x="168" y="24.0001" width="24" height="24" stroke="#222222" stroke-opacity="0.06" stroke-width="0.48"/>
<rect x="-24" y="48.0001" width="24" height="24" stroke="#D0F57F" stroke-width="0.48"/>
<path d="M24 48.0001H24.24V47.7601H24V48.0001ZM24 72.0001V72.2401H24.24V72.0001H24ZM0 48.2401H24V47.7601H0V48.2401ZM23.76 48.0001V72.0001H24.24V48.0001H23.76ZM24 71.7601H0V72.2401H24V71.7601Z" fill="url(#paint2_linear_247_612)" fill-opacity="0.01"/>
<rect x="24" y="48.0001" width="24" height="24" stroke="#222222" stroke-opacity="0.03" stroke-width="0.48"/>
<rect x="48" y="48.0001" width="24" height="24" stroke="#222222" stroke-opacity="0.04" stroke-width="0.48"/>
<rect x="72" y="48.0001" width="24" height="24" stroke="#222222" stroke-opacity="0.05" stroke-width="0.48"/>
<rect x="96" y="48.0001" width="24" height="24" stroke="#222222" stroke-opacity="0.06" stroke-width="0.48"/>
<rect x="120" y="48.0001" width="24" height="24" stroke="#222222" stroke-opacity="0.06" stroke-width="0.48"/>
<rect x="144" y="48.0001" width="24" height="24" stroke="#222222" stroke-opacity="0.06" stroke-width="0.48"/>
<rect x="168" y="48.0001" width="24" height="24" stroke="#222222" stroke-opacity="0.06" stroke-width="0.48"/>
<rect x="-24" y="71.9999" width="24" height="24" stroke="#D0F57F" stroke-width="0.48"/>
<path d="M24 71.9999H24.24V71.7599H24V71.9999ZM24 95.9999V96.2399H24.24V95.9999H24ZM0 72.2399H24V71.7599H0V72.2399ZM23.76 71.9999V95.9999H24.24V71.9999H23.76ZM24 95.7599H0V96.2399H24V95.7599Z" fill="url(#paint3_linear_247_612)" fill-opacity="0.01"/>
<rect x="24" y="71.9999" width="24" height="24" stroke="#222222" stroke-opacity="0.03" stroke-width="0.48"/>
<rect x="48" y="71.9999" width="24" height="24" stroke="#222222" stroke-opacity="0.04" stroke-width="0.48"/>
<rect x="72" y="71.9999" width="24" height="24" stroke="#222222" stroke-opacity="0.05" stroke-width="0.48"/>
<rect x="96" y="71.9999" width="24" height="24" stroke="#222222" stroke-opacity="0.06" stroke-width="0.48"/>
<rect x="120" y="71.9999" width="24" height="24" stroke="#222222" stroke-opacity="0.06" stroke-width="0.48"/>
<rect x="144" y="71.9999" width="24" height="24" stroke="#222222" stroke-opacity="0.06" stroke-width="0.48"/>
<rect x="168" y="71.9999" width="24" height="24" stroke="#222222" stroke-opacity="0.06" stroke-width="0.48"/>
<rect x="-24" y="96" width="24" height="24" fill="#222222" fill-opacity="0.05" stroke="#222222" stroke-opacity="0.06" stroke-width="0.48"/>
<rect y="96" width="24" height="24" stroke="#222222" stroke-opacity="0.06" stroke-width="0.48"/>
<rect x="24" y="96" width="24" height="24" stroke="#222222" stroke-opacity="0.06" stroke-width="0.48"/>
<rect x="48" y="96" width="24" height="24" stroke="#222222" stroke-opacity="0.06" stroke-width="0.48"/>
<rect x="72" y="96" width="24" height="24" stroke="#222222" stroke-opacity="0.06" stroke-width="0.48"/>
<rect x="96" y="96" width="24" height="24" stroke="#222222" stroke-opacity="0.06" stroke-width="0.48"/>
<rect x="120" y="96" width="24" height="24" stroke="#222222" stroke-opacity="0.06" stroke-width="0.48"/>
<rect x="144" y="96" width="24" height="24" stroke="#222222" stroke-opacity="0.06" stroke-width="0.48"/>
<rect x="168" y="96" width="24" height="24" stroke="#222222" stroke-opacity="0.06" stroke-width="0.48"/>
</g>
<defs>
<linearGradient id="paint0_linear_247_612" x1="24" y1="12" x2="0" y2="12" gradientUnits="userSpaceOnUse">
<stop stop-color="#222222"/>
<stop offset="1" stop-color="#BFF1A8"/>
</linearGradient>
<linearGradient id="paint1_linear_247_612" x1="24" y1="36.0001" x2="0" y2="36.0001" gradientUnits="userSpaceOnUse">
<stop stop-color="#222222"/>
<stop offset="1" stop-color="#BFF1A8"/>
</linearGradient>
<linearGradient id="paint2_linear_247_612" x1="24" y1="60.0001" x2="0" y2="60.0001" gradientUnits="userSpaceOnUse">
<stop stop-color="#222222"/>
<stop offset="1" stop-color="#BFF1A8"/>
</linearGradient>
<linearGradient id="paint3_linear_247_612" x1="24" y1="83.9999" x2="0" y2="83.9999" gradientUnits="userSpaceOnUse">
<stop stop-color="#222222"/>
<stop offset="1" stop-color="#BFF1A8"/>
</linearGradient>
<clipPath id="clip0_247_612">
<rect width="312" height="96" fill="white"/>
</clipPath>
</defs>
</svg>
